<svg xmlns="http://www.w3.org/2000/svg" width="640" height="542" viewBox="0 0 640 542">
    <defs>
        <filter id="a" width="134.3%" height="134.5%" x="-17.1%" y="-17.1%" filterUnits="objectBoundingBox">
            <feOffset dy="4" in="SourceAlpha" result="shadowOffsetOuter1"/>
            <feGaussianBlur in="shadowOffsetOuter1" result="shadowBlurOuter1" stdDeviation="9"/>
            <feColorMatrix in="shadowBlurOuter1" result="shadowMatrixOuter1" values="0 0 0 0 0 0 0 0 0 0 0 0 0 0 0 0 0 0 0.220443619 0"/>
            <feMerge>
                <feMergeNode in="shadowMatrixOuter1"/>
                <feMergeNode in="SourceGraphic"/>
            </feMerge>
        </filter>
        <filter id="b" width="139.3%" height="139.5%" x="-19.6%" y="-19.7%" filterUnits="objectBoundingBox">
            <feOffset dy="4" in="SourceAlpha" result="shadowOffsetOuter1"/>
            <feGaussianBlur in="shadowOffsetOuter1" result="shadowBlurOuter1" stdDeviation="9"/>
            <feColorMatrix in="shadowBlurOuter1" result="shadowMatrixOuter1" values="0 0 0 0 0 0 0 0 0 0 0 0 0 0 0 0 0 0 0.220443619 0"/>
            <feMerge>
                <feMergeNode in="shadowMatrixOuter1"/>
                <feMergeNode in="SourceGraphic"/>
            </feMerge>
        </filter>
        <filter id="c" width="115.8%" height="115.8%" x="-7.9%" y="-7.9%" filterUnits="objectBoundingBox">
            <feOffset dy="4" in="SourceAlpha" result="shadowOffsetOuter1"/>
            <feGaussianBlur in="shadowOffsetOuter1" result="shadowBlurOuter1" stdDeviation="9"/>
            <feColorMatrix in="shadowBlurOuter1" result="shadowMatrixOuter1" values="0 0 0 0 0 0 0 0 0 0 0 0 0 0 0 0 0 0 0.220443619 0"/>
            <feMerge>
                <feMergeNode in="shadowMatrixOuter1"/>
                <feMergeNode in="SourceGraphic"/>
            </feMerge>
        </filter>
        <filter id="d" width="125%" height="125.1%" x="-12.5%" y="-12.5%" filterUnits="objectBoundingBox">
            <feOffset dy="4" in="SourceAlpha" result="shadowOffsetOuter1"/>
            <feGaussianBlur in="shadowOffsetOuter1" result="shadowBlurOuter1" stdDeviation="9"/>
            <feColorMatrix in="shadowBlurOuter1" result="shadowMatrixOuter1" values="0 0 0 0 0 0 0 0 0 0 0 0 0 0 0 0 0 0 0.220443619 0"/>
            <feMerge>
                <feMergeNode in="shadowMatrixOuter1"/>
                <feMergeNode in="SourceGraphic"/>
            </feMerge>
        </filter>
        <filter id="e" width="152.7%" height="152.7%" x="-26.3%" y="-26.4%" filterUnits="objectBoundingBox">
            <feOffset dy="4" in="SourceAlpha" result="shadowOffsetOuter1"/>
            <feGaussianBlur in="shadowOffsetOuter1" result="shadowBlurOuter1" stdDeviation="9"/>
            <feColorMatrix in="shadowBlurOuter1" result="shadowMatrixOuter1" values="0 0 0 0 0 0 0 0 0 0 0 0 0 0 0 0 0 0 0.220443619 0"/>
            <feMerge>
                <feMergeNode in="shadowMatrixOuter1"/>
                <feMergeNode in="SourceGraphic"/>
            </feMerge>
        </filter>
        <filter id="f" width="170%" height="170.2%" x="-35%" y="-35%" filterUnits="objectBoundingBox">
            <feOffset dy="4" in="SourceAlpha" result="shadowOffsetOuter1"/>
            <feGaussianBlur in="shadowOffsetOuter1" result="shadowBlurOuter1" stdDeviation="9"/>
            <feColorMatrix in="shadowBlurOuter1" result="shadowMatrixOuter1" values="0 0 0 0 0 0 0 0 0 0 0 0 0 0 0 0 0 0 0.220443619 0"/>
            <feMerge>
                <feMergeNode in="shadowMatrixOuter1"/>
                <feMergeNode in="SourceGraphic"/>
            </feMerge>
        </filter>
        <filter id="g" width="146.6%" height="147.2%" x="-23.3%" y="-23.4%" filterUnits="objectBoundingBox">
            <feOffset dy="4" in="SourceAlpha" result="shadowOffsetOuter1"/>
            <feGaussianBlur in="shadowOffsetOuter1" result="shadowBlurOuter1" stdDeviation="9"/>
            <feColorMatrix in="shadowBlurOuter1" result="shadowMatrixOuter1" values="0 0 0 0 0 0 0 0 0 0 0 0 0 0 0 0 0 0 0.220443619 0"/>
            <feMerge>
                <feMergeNode in="shadowMatrixOuter1"/>
                <feMergeNode in="SourceGraphic"/>
            </feMerge>
        </filter>
        <filter id="h" width="254.9%" height="255.3%" x="-77.2%" y="-77.3%" filterUnits="objectBoundingBox">
            <feOffset dy="4" in="SourceAlpha" result="shadowOffsetOuter1"/>
            <feGaussianBlur in="shadowOffsetOuter1" result="shadowBlurOuter1" stdDeviation="9"/>
            <feColorMatrix in="shadowBlurOuter1" result="shadowMatrixOuter1" values="0 0 0 0 0 0 0 0 0 0 0 0 0 0 0 0 0 0 0.220443619 0"/>
            <feMerge>
                <feMergeNode in="shadowMatrixOuter1"/>
                <feMergeNode in="SourceGraphic"/>
            </feMerge>
        </filter>
        <filter id="i" width="120.2%" height="120.2%" x="-10.1%" y="-10.1%" filterUnits="objectBoundingBox">
            <feOffset dy="4" in="SourceAlpha" result="shadowOffsetOuter1"/>
            <feGaussianBlur in="shadowOffsetOuter1" result="shadowBlurOuter1" stdDeviation="11"/>
            <feColorMatrix in="shadowBlurOuter1" result="shadowMatrixOuter1" values="0 0 0 0 0 0 0 0 0 0 0 0 0 0 0 0 0 0 0.220443619 0"/>
            <feMerge>
                <feMergeNode in="shadowMatrixOuter1"/>
                <feMergeNode in="SourceGraphic"/>
            </feMerge>
        </filter>
        <filter id="j" width="130.7%" height="130.7%" x="-15.3%" y="-15.3%" filterUnits="objectBoundingBox">
            <feOffset dy="4" in="SourceAlpha" result="shadowOffsetOuter1"/>
            <feGaussianBlur in="shadowOffsetOuter1" result="shadowBlurOuter1" stdDeviation="11"/>
            <feColorMatrix in="shadowBlurOuter1" result="shadowMatrixOuter1" values="0 0 0 0 0 0 0 0 0 0 0 0 0 0 0 0 0 0 0.220443619 0"/>
            <feMerge>
                <feMergeNode in="shadowMatrixOuter1"/>
                <feMergeNode in="SourceGraphic"/>
            </feMerge>
        </filter>
    </defs>
    <g fill="none" fill-rule="evenodd">
        <g filter="url(#a)" transform="matrix(0 1 1 0 342.53 268.919)">
            <path fill="#0675D4" d="M.566 126.4L126.35.821l124.898 124.693-125.784 125.578z"/>
            <path fill="#0068C0" d="M.566 126.4l250.682-.885-125.784 125.578z"/>
        </g>
        <g filter="url(#b)" transform="matrix(1 0 0 -1 611.303 223.09)">
            <path fill="#0675D4" d="M.493 109.996L109.953.716l108.69 108.511-109.46 109.281z"/>
            <path fill="#0068C0" d="M.493 109.996l218.15-.769-109.46 109.281z"/>
        </g>
        <g filter="url(#c)" transform="translate(143.51 -149.947)">
            <path fill="#1787E6" d="M.232 273.991L273.884.788l271.724 271.28L271.957 545.27z"/>
            <path fill="#1978C7" d="M.232 273.991l545.376-1.924-273.651 273.204z"/>
        </g>
        <g filter="url(#d)" transform="matrix(1 0 0 -1 440.308 123.815)">
            <path fill="#1967A9" d="M172.165 1.413L.482 172.713l170.474 170.093 171.683-171.3z"/>
            <path fill="#1070C2" d="M.772 172.714l341.577-1.208-171.392 171.59z"/>
        </g>
        <g filter="url(#e)" transform="rotate(87 209.777 99.756)">
            <path fill="#0675D4" d="M.366 82.015L81.754.533l80.814 80.908-81.387 81.482z"/>
            <path fill="#0068C0" d="M.366 82.015l162.202-.574-81.387 81.482z"/>
        </g>
        <g filter="url(#f)" transform="translate(16 24.562)">
            <path fill="#0675D4" d="M.276 61.752L61.556.402l60.848 60.918-61.28 61.351z"/>
            <path fill="#0068C0" d="M.276 61.752l122.128-.432-61.28 61.351z"/>
        </g>
        <g filter="url(#g)" transform="translate(63.737 125.265)">
            <path fill="#0675D4" d="M.414 92.629L92.334.602l91.272 91.379-91.92 92.026z"/>
            <path fill="#0068C0" d="M.414 92.629l183.192-.648-91.92 92.026z"/>
        </g>
        <g filter="url(#h)" transform="translate(285.645 326.669)">
            <path fill="#0675D4" d="M.125 27.982L27.893.182l27.571 27.604-27.767 27.8z"/>
            <path fill="#0068C0" d="M.125 27.982l55.34-.196-27.768 27.8z"/>
        </g>
        <g filter="url(#i)" transform="matrix(1 0 0 -1 369.598 520.047)">
            <path fill="#0675D4" d="M1.11 247.67L247.44 1.61l244.596 244.327-246.33 246.06z"/>
            <path fill="#0068C0" d="M1.11 247.67l490.926-1.733-246.33 246.06z"/>
        </g>
        <g filter="url(#j)" transform="translate(130 156)">
            <path fill="#0675D4" d="M.732 163.988L163.198 1.066l161.323 161.775-162.467 162.921z"/>
            <path fill="#0068C0" d="M.732 163.988l323.789-1.147-162.467 162.921z"/>
        </g>
    </g>
</svg>
